<svg width="16" height="16" viewBox="0 0 16 16" fill="none" xmlns="http://www.w3.org/2000/svg">
<g id="comment 1">
<g id="Group">
<path id="Vector" d="M0 14.11V6.28115C0 3.86002 1.97013 1.88989 4.39126 1.88989H11.6077C14.0293 1.88989 16 3.86002 16 6.28115V7.63149C16 10.0526 14.0299 12.0228 11.6087 12.0228H4.49306L0 14.11ZM4.39126 2.86889C2.50974 2.86889 0.979 4.39963 0.979 6.28115V12.5755L4.27732 11.0432H11.6087C13.4903 11.0432 15.021 9.51248 15.021 7.63097V6.28062C15.021 4.39911 13.4897 2.86837 11.6077 2.86837H4.39126V2.86889ZM4.71407 6.20678C5.22837 6.20678 5.64507 6.62348 5.64507 7.13777C5.64507 7.65207 5.22837 8.06877 4.71407 8.06877C4.19978 8.06877 3.78307 7.65207 3.78307 7.13777C3.78307 6.62348 4.19978 6.20678 4.71407 6.20678ZM11.2854 6.20678C11.7997 6.20678 12.2164 6.62348 12.2164 7.13777C12.2164 7.65207 11.7997 8.06877 11.2854 8.06877C10.7711 8.06877 10.3544 7.65207 10.3544 7.13777C10.3544 6.62348 10.7711 6.20678 11.2854 6.20678ZM7.99921 6.20678C8.5135 6.20678 8.93021 6.62348 8.93021 7.13777C8.93021 7.65207 8.5135 8.06877 7.99921 8.06877C7.48492 8.06877 7.06821 7.65207 7.06821 7.13777C7.06821 6.62348 7.48492 6.20678 7.99921 6.20678Z" fill="#6A7A99"/>
</g>
</g>
</svg>
