<svg width="16" height="16" viewBox="0 0 16 16" fill="none" xmlns="http://www.w3.org/2000/svg">
<g id="infinity 1" clip-path="url(#clip0_0_3526)">
<path id="Vector" d="M10.3148 6.52292L9.16822 7.66662C8.98478 7.84962 8.98459 8.14671 9.16781 8.32993L10.2928 9.45487C11.1045 10.2666 12.4268 10.2975 13.249 9.49637C14.0844 8.68237 14.091 7.34518 13.2688 6.52292C12.453 5.7072 11.1304 5.7072 10.3148 6.52292ZM12.6058 8.81396C12.1562 9.26356 11.4273 9.26356 10.9777 8.81396L10.1636 7.9999L10.9777 7.18583C11.4273 6.73624 12.1562 6.73624 12.6058 7.18583C13.0554 7.63543 13.0554 8.36437 12.6058 8.81396Z" fill="#033399"/>
<path id="Vector_2" d="M14.7674 5.02411C13.1239 3.38064 10.4594 3.38064 8.81591 5.02411L8.00001 5.84001L7.1841 5.02411C5.54063 3.38064 2.87607 3.38064 1.2326 5.02411C-0.410867 6.66758 -0.410867 9.33215 1.2326 10.9756C2.87607 12.6191 5.54063 12.6191 7.1841 10.9756L8.00001 10.1597L8.81591 10.9756C10.4594 12.6191 13.1239 12.6191 14.7674 10.9756C16.4109 9.33215 16.4109 6.66758 14.7674 5.02411ZM14.1218 10.2953C12.8428 11.5933 10.7399 11.5739 9.45141 10.2853L8.33144 9.16536C8.14838 8.9823 7.8516 8.9823 7.66854 9.16536L6.54857 10.2853C5.26001 11.5739 3.15723 11.5933 1.8782 10.2953C0.623914 9.02243 0.623914 6.97733 1.8782 5.70445C3.15723 4.40645 5.26004 4.42586 6.54857 5.71442L7.66854 6.83436C7.8516 7.01742 8.14838 7.01742 8.33144 6.83436L9.45141 5.71442C10.74 4.42586 12.8428 4.40645 14.1218 5.70445C15.3761 6.97733 15.3761 9.0224 14.1218 10.2953Z" fill="#033399"/>
<path id="Vector_3" d="M5.6853 6.52292C4.84646 5.68407 3.47165 5.70786 2.66321 6.59429C1.94137 7.38576 1.94137 8.61404 2.66321 9.40554C3.47165 10.2919 4.84646 10.3158 5.6853 9.47692L6.83083 8.33139C7.0139 8.14832 7.0139 7.85154 6.83083 7.66848L5.6853 6.52292ZM5.0224 8.81395C4.5728 9.26354 3.84387 9.26354 3.39427 8.81395C2.94468 8.36435 2.94468 7.63542 3.39427 7.18582C3.84387 6.73623 4.5728 6.73623 5.0224 7.18582L5.83646 7.99989L5.0224 8.81395Z" fill="#033399"/>
</g>
<defs>
<clipPath id="clip0_0_3526">
<rect width="16" height="16" fill="white"/>
</clipPath>
</defs>
</svg>
