<svg width="14" height="14" viewBox="0 0 14 14" fill="none" xmlns="http://www.w3.org/2000/svg">
<g id="puzzle 1" clip-path="url(#clip0_0_3497)">
<g id="Group">
<g id="Group_2">
<path id="Vector" d="M13.9858 7.80919C13.8754 6.8028 13.1018 5.98288 12.1045 5.81526C12.1349 5.81526 11.7138 5.73528 11.2607 5.82828V4.1088C11.2607 3.35362 10.6463 2.73927 9.89115 2.73927H8.1717C8.44276 1.41819 7.51157 0.159011 6.19079 0.0142261C4.63502 -0.156508 3.38938 1.2366 3.69872 2.73927H1.36953C0.614357 2.73927 0 3.35365 0 4.1088V6.48551C0 6.8369 0.381553 7.05655 0.685368 6.88052C0.965039 6.71848 1.28329 6.66144 1.60545 6.71563C2.19236 6.81426 2.66549 7.31604 2.73045 7.90866C2.82304 8.75312 2.16069 9.43482 1.36953 9.43482C1.13063 9.43482 0.894055 9.37092 0.685341 9.25003C0.381143 9.07383 0 9.29417 0 9.64504V12.6304C0 13.3856 0.614357 14 1.36953 14H4.35494C4.70652 14 4.92588 13.6183 4.74995 13.3147C4.58794 13.035 4.53092 12.7168 4.58509 12.3945C4.68369 11.8076 5.18545 11.3345 5.77809 11.2696C6.62427 11.1768 7.30425 11.8411 7.30425 12.6305C7.30425 12.8694 7.24035 13.106 7.11946 13.3146C6.94321 13.6189 7.16357 14 7.51447 14H9.89118C10.6464 14 11.2607 13.3856 11.2607 12.6305V10.3013C11.4106 10.3322 11.5636 10.3479 11.7172 10.3479C13.0693 10.3479 14.1354 9.17443 13.9858 7.80919ZM11.7172 9.43482C11.4783 9.43482 11.2417 9.37092 11.033 9.25003C10.8917 9.16822 10.7176 9.16803 10.5762 9.24954C10.4348 9.33105 10.3476 9.48185 10.3476 9.64507V12.6305C10.3476 12.8822 10.1428 13.087 9.8911 13.087H8.17061C8.20148 12.9371 8.2172 12.7841 8.2172 12.6305C8.2172 11.2788 7.04427 10.2124 5.67851 10.362C4.67213 10.4723 3.8522 11.2459 3.68458 12.2432C3.63657 12.529 3.64143 12.8132 3.69763 13.087H1.36953C1.11781 13.087 0.913032 12.8822 0.913032 12.6305V10.3013C1.06293 10.3322 1.21589 10.3479 1.36953 10.3479C2.72162 10.3479 3.7877 9.17448 3.63807 7.80924C3.52771 6.80286 2.75411 5.98293 1.75677 5.81532C1.47101 5.76722 1.18685 5.77214 0.913004 5.82833V4.10885C0.913004 3.85713 1.11781 3.65235 1.36951 3.65235H4.35491C4.7065 3.65235 4.92585 3.27066 4.74992 2.96701C4.19301 2.00555 4.95923 0.797922 6.09126 0.921898C7.04438 1.02638 7.6222 2.09918 7.11938 2.96698C6.94313 3.27121 7.16349 3.65235 7.51439 3.65235H9.8911C10.1428 3.65235 10.3476 3.85716 10.3476 4.10885V6.48556C10.3476 6.83696 10.7292 7.05661 11.033 6.88057C11.3126 6.71853 11.6308 6.66149 11.9531 6.71569H11.9531C12.54 6.81432 13.0131 7.3161 13.0781 7.90872C13.1707 8.75312 12.5084 9.43482 11.7172 9.43482Z" fill="#033399"/>
</g>
</g>
</g>
<defs>
<clipPath id="clip0_0_3497">
<rect width="14" height="14" fill="white"/>
</clipPath>
</defs>
</svg>
