<svg width="78" height="10" viewBox="0 0 78 10" fill="none" xmlns="http://www.w3.org/2000/svg">
<path d="M4.46355 0.347861L3.24299 2.93348L0.512158 3.34944C0.0224388 3.42365 -0.173823 4.05443 0.181317 4.41572L2.15701 6.42719L1.68973 9.26863C1.60561 9.78224 2.12337 10.167 2.55701 9.92675L5 8.58512L7.44299 9.92675C7.87663 10.165 8.39439 9.78224 8.31028 9.26863L7.84299 6.42719L9.81868 4.41572C10.1738 4.05443 9.97756 3.42365 9.48784 3.34944L6.75701 2.93348L5.53645 0.347861C5.31776 -0.11302 4.68411 -0.118878 4.46355 0.347861Z" fill="#E59819"/>
<path d="M21.4636 0.347861L20.243 2.93348L17.5122 3.34944C17.0224 3.42365 16.8262 4.05443 17.1813 4.41572L19.157 6.42719L18.6897 9.26863C18.6056 9.78224 19.1234 10.167 19.557 9.92675L22 8.58512L24.443 9.92675C24.8766 10.165 25.3944 9.78224 25.3103 9.26863L24.843 6.42719L26.8187 4.41572C27.1738 4.05443 26.9776 3.42365 26.4878 3.34944L23.757 2.93348L22.5364 0.347861C22.3178 -0.11302 21.6841 -0.118878 21.4636 0.347861Z" fill="#E59819"/>
<path d="M38.4636 0.347861L37.243 2.93348L34.5122 3.34944C34.0224 3.42365 33.8262 4.05443 34.1813 4.41572L36.157 6.42719L35.6897 9.26863C35.6056 9.78224 36.1234 10.167 36.557 9.92675L39 8.58512L41.443 9.92675C41.8766 10.165 42.3944 9.78224 42.3103 9.26863L41.843 6.42719L43.8187 4.41572C44.1738 4.05443 43.9776 3.42365 43.4878 3.34944L40.757 2.93348L39.5364 0.347861C39.3178 -0.11302 38.6841 -0.118878 38.4636 0.347861Z" fill="#E59819"/>
<path d="M55.4636 0.347861L54.243 2.93348L51.5122 3.34944C51.0224 3.42365 50.8262 4.05443 51.1813 4.41572L53.157 6.42719L52.6897 9.26863C52.6056 9.78224 53.1234 10.167 53.557 9.92675L56 8.58512L58.443 9.92675C58.8766 10.165 59.3944 9.78224 59.3103 9.26863L58.843 6.42719L60.8187 4.41572C61.1738 4.05443 60.9776 3.42365 60.4878 3.34944L57.757 2.93348L56.5364 0.347861C56.3178 -0.11302 55.6841 -0.118878 55.4636 0.347861Z" fill="#E59819"/>
<path d="M72.4636 0.347861L71.243 2.93348L68.5122 3.34944C68.0224 3.42365 67.8262 4.05443 68.1813 4.41572L70.157 6.42719L69.6897 9.26863C69.6056 9.78224 70.1234 10.167 70.557 9.92675L73 8.58512L75.443 9.92675C75.8766 10.165 76.3944 9.78224 76.3103 9.26863L75.843 6.42719L77.8187 4.41572C78.1738 4.05443 77.9776 3.42365 77.4878 3.34944L74.757 2.93348L73.5364 0.347861C73.3178 -0.11302 72.6841 -0.118878 72.4636 0.347861Z" fill="#E59819"/>
</svg>
