<svg width="15" height="15" viewBox="0 0 15 15" fill="none" xmlns="http://www.w3.org/2000/svg">
<g id="Brands / telegram">
<path id="Vector" d="M13.9154 1.51736C13.7375 1.36932 13.5227 1.2723 13.294 1.23662C13.0653 1.20093 12.8312 1.22793 12.6166 1.31473L1.41604 5.83682C1.17651 5.93538 0.97261 6.10444 0.831412 6.32159C0.690215 6.53873 0.618392 6.79368 0.625478 7.05259C0.632564 7.31151 0.718223 7.56215 0.871086 7.77124C1.02395 7.98033 1.23679 8.138 1.48135 8.2233L3.74697 9.01126L5.00979 13.1873C5.02695 13.2431 5.05185 13.2962 5.08377 13.345C5.08862 13.3525 5.09545 13.3581 5.1006 13.3654C5.13748 13.4169 5.18205 13.4623 5.23274 13.5002C5.24716 13.5112 5.26097 13.5215 5.27638 13.5313C5.33571 13.5707 5.40142 13.5994 5.47059 13.6164L5.47799 13.617L5.48218 13.6188C5.52376 13.6272 5.56609 13.6315 5.60852 13.6316C5.61261 13.6316 5.61623 13.6297 5.62027 13.6296C5.68431 13.6285 5.74779 13.6174 5.80846 13.5969C5.82257 13.5921 5.83466 13.584 5.84836 13.5782C5.89359 13.5595 5.93645 13.5355 5.97604 13.5066C6.00774 13.4799 6.03945 13.4532 6.07117 13.4265L7.76002 11.5619L10.2789 13.5132C10.5007 13.6858 10.7737 13.7797 11.0547 13.7799C11.3492 13.7795 11.6346 13.6779 11.8631 13.4921C12.0915 13.3063 12.2492 13.0476 12.3096 12.7594L14.3488 2.74906C14.395 2.52375 14.3791 2.29013 14.3027 2.07317C14.2264 1.85622 14.0925 1.6641 13.9154 1.51736ZM5.85635 9.21024C5.76969 9.29655 5.71045 9.40654 5.68606 9.5264L5.49262 10.4664L5.00258 8.84573L7.54336 7.52264L5.85635 9.21024ZM11.045 12.525L8.06826 10.2191C7.94372 10.1229 7.7875 10.0771 7.63072 10.0909C7.47395 10.1047 7.32812 10.1771 7.22231 10.2936L6.68143 10.8906L6.87258 9.96156L11.2995 5.53468C11.4051 5.42916 11.4695 5.28928 11.4809 5.14038C11.4924 4.99149 11.4501 4.84342 11.3618 4.723C11.2735 4.60259 11.1449 4.51778 10.9995 4.48395C10.854 4.45012 10.7013 4.46951 10.5689 4.53859L4.21557 7.84648L1.88784 6.99466L13.1244 2.49941L11.045 12.525Z" fill="#4F547B"/>
</g>
</svg>
