<svg width="16" height="16" viewBox="0 0 16 16" fill="none" xmlns="http://www.w3.org/2000/svg">
<g id="translate 2" clip-path="url(#clip0_0_3515)">
<path id="Vector" d="M11.6829 9.63416C11.6377 9.48352 11.4519 9.41309 11.2611 9.41309C11.0753 9.41309 10.8895 9.48352 10.8444 9.63416L9.87524 12.7924C9.87024 12.8125 9.86523 12.8325 9.86523 12.8425C9.86523 13.0033 10.1012 13.1136 10.277 13.1136C10.3875 13.1136 10.4728 13.0786 10.4979 12.9832L10.6886 12.3153H11.8385L12.0294 12.9832C12.0544 13.0786 12.1398 13.1136 12.2502 13.1136C12.426 13.1136 12.662 12.9983 12.662 12.8425C12.662 12.8275 12.657 12.8124 12.652 12.7924L11.6829 9.63416ZM10.8242 11.8031L11.261 10.2617L11.698 11.8031H10.8242Z" fill="#033399"/>
<path id="Vector_2" d="M14.2761 6.5271H9.47278V4.47559L11.0338 3.3606C11.157 3.27258 11.2301 3.13062 11.2301 2.97925C11.2301 2.82776 11.157 2.68579 11.0338 2.59778L9.45398 1.46936C9.33057 0.639038 8.61292 0 7.7489 0H1.724C0.773315 0 0 0.773315 0 1.724V7.74902C0 8.69958 0.773315 9.4729 1.724 9.4729H6.52722V11.5244L4.96619 12.6394C4.84302 12.7274 4.7699 12.8695 4.7699 13.0209C4.7699 13.1722 4.84302 13.3143 4.96619 13.4022L6.54602 14.5306C6.66943 15.361 7.38708 16 8.2511 16H14.2761C15.2267 16 16 15.2266 16 14.276V8.2511C16 7.30042 15.2267 6.5271 14.2761 6.5271ZM1.724 8.5354C1.29028 8.5354 0.9375 8.18262 0.9375 7.7489V1.72388C0.9375 1.29028 1.29028 0.9375 1.724 0.9375H7.7489C8.1825 0.9375 8.53528 1.29028 8.53528 1.72388C8.53528 1.87537 8.6084 2.01746 8.73157 2.10535L9.95483 2.97913L8.73157 3.85291C8.6084 3.94092 8.53528 4.08301 8.53528 4.23438V6.5271H8.2511C7.30054 6.5271 6.52722 7.30042 6.52722 8.25098V8.5354H1.724ZM15.0625 14.276C15.0625 14.7097 14.7097 15.0625 14.2761 15.0625H8.2511C7.8175 15.0625 7.46472 14.7097 7.46472 14.276C7.46472 14.1246 7.3916 13.9825 7.26843 13.8947L6.04517 13.0209L7.26843 12.1471C7.3916 12.0591 7.46472 11.917 7.46472 11.7656V8.2511C7.46472 7.81738 7.8175 7.4646 8.2511 7.4646H9.00281H9.00403H9.00525H14.2761C14.7097 7.4646 15.0625 7.81738 15.0625 8.2511V14.276Z" fill="#033399"/>
<path id="Vector_3" d="M6.17676 4.32129C6.32263 4.32129 6.44104 4.20288 6.44104 4.05688C6.44104 3.91089 6.32263 3.79248 6.17676 3.79248H5.00085V3.15063C5.00085 3.00464 4.88245 2.88623 4.73645 2.88623C4.59058 2.88623 4.47217 3.00464 4.47217 3.15063V3.79248H3.29626C3.15039 3.79248 3.03198 3.91089 3.03198 4.05688C3.03198 4.20288 3.15039 4.32129 3.29626 4.32129H3.66064C3.71887 4.87952 3.95959 5.38403 4.32166 5.77478C4.02148 5.95447 3.6709 6.05823 3.29626 6.05823C3.15039 6.05823 3.03198 6.17651 3.03198 6.32251C3.03198 6.46851 3.15039 6.58691 3.29626 6.58691C3.83118 6.58691 4.32739 6.41968 4.73645 6.13525C5.14563 6.41968 5.64185 6.58691 6.17676 6.58691C6.32263 6.58691 6.44104 6.46851 6.44104 6.32251C6.44104 6.17651 6.32263 6.05823 6.17676 6.05823C5.80212 6.05823 5.45154 5.95471 5.15137 5.77478C5.51343 5.38403 5.75415 4.87952 5.81238 4.32129H6.17676ZM4.73645 5.44446C4.44727 5.14429 4.25085 4.75452 4.19336 4.32129H5.27966C5.22217 4.75452 5.02576 5.14429 4.73645 5.44446Z" fill="#033399"/>
</g>
<defs>
<clipPath id="clip0_0_3515">
<rect width="16" height="16" fill="white"/>
</clipPath>
</defs>
</svg>
