<svg width="25" height="25" viewBox="0 0 25 25" fill="none" xmlns="http://www.w3.org/2000/svg">
<circle cx="12.5" cy="12.5" r="12.5" fill="#EEF2F6"/>
<path d="M15.6429 9.66667H15.1191V8.61905C15.1191 7.15238 13.9667 6 12.5 6C11.0334 6 9.881 7.15238 9.881 8.61905V9.66667H9.35719C8.781 9.66667 8.30957 10.1381 8.30957 10.7143V15.9524C8.30957 16.5286 8.781 17 9.35719 17H15.6429C16.2191 17 16.6905 16.5286 16.6905 15.9524V10.7143C16.6905 10.1381 16.2191 9.66667 15.6429 9.66667ZM12.5 14.381C11.9239 14.381 11.4524 13.9095 11.4524 13.3333C11.4524 12.7571 11.9239 12.2857 12.5 12.2857C13.0762 12.2857 13.5477 12.7571 13.5477 13.3333C13.5477 13.9095 13.0762 14.381 12.5 14.381ZM14.1239 9.66667H10.8762V8.61905C10.8762 7.72857 11.6096 6.99524 12.5 6.99524C13.3905 6.99524 14.1239 7.72857 14.1239 8.61905V9.66667Z" fill="#6A7A99"/>
</svg>
