<svg width="16" height="16" viewBox="0 0 16 16" fill="none" xmlns="http://www.w3.org/2000/svg">
<g id="video-file 1">
<path id="Vector" d="M14.3958 3.55103L10.9296 0.134888C10.8418 0.0484619 10.7236 0 10.6005 0H2.84375C2.06836 0 1.4375 0.630859 1.4375 1.40625V14.5938C1.4375 15.3691 2.06836 16 2.84375 16H13.1293C13.9047 16 14.5355 15.3691 14.5355 14.5938V3.88489C14.5354 3.7594 14.4851 3.63916 14.3958 3.55103ZM11.0692 1.58887L12.9233 3.41614H11.0692V1.58887ZM2.84375 0.9375H10.1317V3.88489C10.1317 4.1438 10.3417 4.35364 10.6005 4.35364H13.598V12.1473H2.375V1.40625C2.375 1.14783 2.58533 0.9375 2.84375 0.9375ZM13.1292 15.0625H2.84375C2.58533 15.0625 2.375 14.8522 2.375 14.5938V13.0848H13.598V14.5938C13.5979 14.8522 13.3877 15.0625 13.1292 15.0625Z" fill="#033399"/>
<path id="Vector_2" d="M5.76917 10.778C5.87415 10.8315 5.98938 10.8577 6.104 10.8577C6.24646 10.8577 6.38806 10.8171 6.50818 10.7374L10.2585 8.54998C10.2722 8.54204 10.2854 8.53338 10.2982 8.5241C10.4712 8.39824 10.5704 8.20708 10.5703 7.99981C10.5703 7.79265 10.4711 7.60161 10.2981 7.47576C10.2854 7.46648 10.2721 7.45781 10.2585 7.44988L6.50818 5.2625C6.29138 5.11858 6.00464 5.10198 5.76904 5.22185C5.54309 5.33696 5.40283 5.55986 5.40283 5.80376V10.1961C5.40283 10.44 5.54321 10.663 5.76917 10.778ZM6.34033 6.24993L9.34082 7.99993L6.34033 9.75005V6.24993Z" fill="#033399"/>
</g>
</svg>
