<svg width="25" height="25" viewBox="0 0 25 25" fill="none" xmlns="http://www.w3.org/2000/svg">
<circle cx="12.5" cy="12.5" r="12.5" fill="#EEF2F6"/>
<path d="M15.5625 9.75V7.90406L17.4394 10.0938H15.9062C15.8151 10.0938 15.7276 10.0575 15.6632 9.99307C15.5987 9.9286 15.5625 9.84117 15.5625 9.75ZM15.9062 10.7812C15.6327 10.7812 15.3704 10.6726 15.177 10.4792C14.9836 10.2858 14.875 10.0235 14.875 9.75V7.6875H10.4062C10.1327 7.6875 9.87044 7.79615 9.67705 7.98955C9.48365 8.18294 9.375 8.44525 9.375 8.71875V16.2812C9.375 16.5548 9.48365 16.8171 9.67705 17.0105C9.87044 17.2039 10.1327 17.3125 10.4062 17.3125H16.5938C16.8673 17.3125 17.1296 17.2039 17.323 17.0105C17.5164 16.8171 17.625 16.5548 17.625 16.2812V10.7812H15.9062Z" fill="#6A7A99"/>
</svg>
