<svg width="20" height="20" viewBox="0 0 20 20" fill="none" xmlns="http://www.w3.org/2000/svg">
<path d="M16.125 19.375H3.875C2.71875 19.375 1.75 18.4375 1.75 17.25V7.78125C1.75 7.15625 2.03125 6.5625 2.53125 6.15625L8.65625 1.09375C9.43751 0.4375 10.5625 0.4375 11.3438 1.09375L17.4688 6.125C17.9688 6.53125 18.25 7.125 18.25 7.75V17.2188C18.25 18.4375 17.2813 19.375 16.125 19.375ZM10 1.875C9.81251 1.875 9.59376 1.9375 9.43751 2.0625L3.3125 7.125C3.125 7.28125 3 7.53125 3 7.78125V17.25C3 17.7188 3.375 18.125 3.875 18.125H16.125C16.5938 18.125 17 17.75 17 17.25V7.78125C17 7.53125 16.875 7.28125 16.6875 7.125L10.5625 2.0625C10.4063 1.9375 10.1875 1.875 10 1.875Z" fill="#6A7A99"/>
<path d="M13.75 16.625H6.25C5.90625 16.625 5.625 16.3438 5.625 16C5.625 15.6563 5.90625 15.375 6.25 15.375H13.75C14.0938 15.375 14.375 15.6563 14.375 16C14.375 16.3438 14.0938 16.625 13.75 16.625Z" fill="#6A7A99"/>
</svg>
