<svg width="20" height="20" viewBox="0 0 20 20" fill="none" xmlns="http://www.w3.org/2000/svg">
<path d="M1.79321 9.99861C1.79321 14.8245 5.71815 18.75 10.5432 18.75C13.6714 18.7469 16.5629 17.0712 18.1213 14.3584C18.4356 13.8092 17.8286 13.1942 17.2754 13.5014C16.3516 14.0148 15.3134 14.2849 14.2566 14.2876C10.7978 14.2876 8.00728 11.497 8.00659 8.03786C8.00659 6.03926 9.03346 3.74065 11.4343 2.46079C11.9954 2.17699 11.8335 1.33555 11.2073 1.28018C6.29534 0.864983 1.79321 4.78344 1.79321 9.99861ZM9.03928 2.64761C7.53671 4.1504 6.75703 6.04742 6.75659 8.03664C6.75659 12.172 10.1218 15.5378 14.2566 15.5378C14.7763 15.5366 15.2865 15.4472 15.791 15.34C14.4091 16.7008 12.5347 17.4973 10.542 17.4998C6.3924 17.4998 3.04196 14.1488 3.04196 9.99861C3.04196 6.08913 5.96128 3.24467 9.03928 2.64761Z" fill="#6A7A99"/>
</svg>
