<svg width="28" height="25" viewBox="0 0 28 25" fill="none" xmlns="http://www.w3.org/2000/svg">
<g filter="url(#filter0_dd_0_5213)">
<path d="M22.75 8.125C22.5842 8.125 22.4253 8.19085 22.3081 8.30806C22.1908 8.42527 22.125 8.58424 22.125 8.75V13.75C22.125 14.2473 21.9275 14.7242 21.5758 15.0758C21.2242 15.4275 20.7473 15.625 20.25 15.625H7.75C7.25272 15.625 6.77581 15.4275 6.42417 15.0758C6.07254 14.7242 5.875 14.2473 5.875 13.75V8.75C5.875 8.58424 5.80915 8.42527 5.69194 8.30806C5.57473 8.19085 5.41576 8.125 5.25 8.125C5.08424 8.125 4.92527 8.19085 4.80806 8.30806C4.69085 8.42527 4.625 8.58424 4.625 8.75V13.75C4.625 14.5788 4.95424 15.3737 5.54029 15.9597C5.83047 16.2499 6.17497 16.4801 6.55411 16.6371C6.93326 16.7942 7.33962 16.875 7.75 16.875H20.25C21.0788 16.875 21.8737 16.5458 22.4597 15.9597C23.0458 15.3737 23.375 14.5788 23.375 13.75V8.75C23.375 8.58424 23.3092 8.42527 23.1919 8.30806C23.0747 8.19085 22.9158 8.125 22.75 8.125Z" fill="#6A7A99" fill-opacity="0.662745"/>
<path d="M4.625 6.25C4.6251 6.37268 4.6613 6.49262 4.7291 6.59487C4.79689 6.69712 4.89328 6.77715 5.00625 6.825L11.7875 9.73125C12.4876 10.0313 13.2414 10.186 14.0031 10.186C14.7648 10.186 15.5186 10.0313 16.2187 9.73125L23 6.825C23.1118 6.77621 23.2069 6.69577 23.2735 6.59359C23.3401 6.49142 23.3754 6.37198 23.375 6.25C23.375 5.4212 23.0458 4.62634 22.4597 4.04029C21.8737 3.45424 21.0788 3.125 20.25 3.125H7.75C7.33962 3.125 6.93326 3.20583 6.55411 3.36288C6.17497 3.51992 5.83047 3.75011 5.54029 4.04029C4.95424 4.62634 4.625 5.4212 4.625 6.25V6.25ZM7.75 4.375H20.25C20.6786 4.37544 21.094 4.52268 21.4272 4.7922C21.7604 5.06172 21.9913 5.43725 22.0813 5.85625L15.725 8.58125C15.18 8.81509 14.5931 8.93568 14 8.93568C13.4069 8.93568 12.82 8.81509 12.275 8.58125L5.91875 5.85625C6.00875 5.43725 6.23957 5.06172 6.57277 4.7922C6.90597 4.52268 7.32144 4.37544 7.75 4.375V4.375Z" fill="#6A7A99" fill-opacity="0.662745"/>
</g>
<defs>
<filter id="filter0_dd_0_5213" x="0" y="0" width="28" height="28" filterUnits="userSpaceOnUse" color-interpolation-filters="sRGB">
<feFlood flood-opacity="0" result="BackgroundImageFix"/>
<feColorMatrix in="SourceAlpha" type="matrix" values="0 0 0 0 0 0 0 0 0 0 0 0 0 0 0 0 0 0 127 0" result="hardAlpha"/>
<feOffset dy="4"/>
<feGaussianBlur stdDeviation="2"/>
<feComposite in2="hardAlpha" operator="out"/>
<feColorMatrix type="matrix" values="0 0 0 0 0 0 0 0 0 0 0 0 0 0 0 0 0 0 0.25 0"/>
<feBlend mode="normal" in2="BackgroundImageFix" result="effect1_dropShadow_0_5213"/>
<feColorMatrix in="SourceAlpha" type="matrix" values="0 0 0 0 0 0 0 0 0 0 0 0 0 0 0 0 0 0 127 0" result="hardAlpha"/>
<feOffset dy="4"/>
<feGaussianBlur stdDeviation="2"/>
<feComposite in2="hardAlpha" operator="out"/>
<feColorMatrix type="matrix" values="0 0 0 0 0 0 0 0 0 0 0 0 0 0 0 0 0 0 0.25 0"/>
<feBlend mode="normal" in2="effect1_dropShadow_0_5213" result="effect2_dropShadow_0_5213"/>
<feBlend mode="normal" in="SourceGraphic" in2="effect2_dropShadow_0_5213" result="shape"/>
</filter>
</defs>
</svg>
