<svg width="20" height="20" viewBox="0 0 20 20" fill="none" xmlns="http://www.w3.org/2000/svg">
<path d="M17.5 7.5C17.1548 7.5 16.875 7.22016 16.875 6.875V3.75C16.875 3.40547 16.5945 3.125 16.25 3.125H13.125C12.7798 3.125 12.5 2.84516 12.5 2.5C12.5 2.15484 12.7798 1.875 13.125 1.875H16.25C17.2839 1.875 18.125 2.71609 18.125 3.75V6.875C18.125 7.22016 17.8452 7.5 17.5 7.5ZM3.125 6.875V3.75C3.125 3.40547 3.40547 3.125 3.75 3.125H6.875C7.22016 3.125 7.5 2.84516 7.5 2.5C7.5 2.15484 7.22016 1.875 6.875 1.875H3.75C2.71609 1.875 1.875 2.71609 1.875 3.75V6.875C1.875 7.22016 2.15484 7.5 2.5 7.5C2.84516 7.5 3.125 7.22016 3.125 6.875ZM18.125 16.25V13.125C18.125 12.7798 17.8452 12.5 17.5 12.5C17.1548 12.5 16.875 12.7798 16.875 13.125V16.25C16.875 16.5945 16.5945 16.875 16.25 16.875H13.125C12.7798 16.875 12.5 17.1548 12.5 17.5C12.5 17.8452 12.7798 18.125 13.125 18.125H16.25C17.2839 18.125 18.125 17.2839 18.125 16.25ZM7.5 17.5C7.5 17.1548 7.22016 16.875 6.875 16.875H3.75C3.40547 16.875 3.125 16.5945 3.125 16.25V13.125C3.125 12.7798 2.84516 12.5 2.5 12.5C2.15484 12.5 1.875 12.7798 1.875 13.125V16.25C1.875 17.2839 2.71609 18.125 3.75 18.125H6.875C7.22016 18.125 7.5 17.8452 7.5 17.5Z" fill="#6A7A99"/>
</svg>
