<svg width="20" height="20" viewBox="0 0 20 20" fill="none" xmlns="http://www.w3.org/2000/svg">
<path d="M10 3.75C9.655 3.75 9.375 3.47 9.375 3.125V2.5C9.375 2.155 9.655 1.875 10 1.875C10.345 1.875 10.625 2.155 10.625 2.5V3.125C10.625 3.47 10.345 3.75 10 3.75Z" fill="#6A7A99"/>
<path d="M15.455 9.20458C15.11 9.20458 14.83 8.92458 14.83 8.57958C14.83 6.03958 12.7675 3.87521 10.2325 3.75521C7.69434 3.63802 5.43152 5.59271 5.19246 8.11802C5.17809 8.26896 5.1709 8.42396 5.1709 8.57958C5.1709 8.92458 4.8909 9.20458 4.5459 9.20458C4.2009 9.20458 3.9209 8.92458 3.9209 8.57958C3.9209 8.38458 3.92996 8.18958 3.94809 8.00021C4.24902 4.82021 7.09809 2.35646 10.2915 2.50677C13.4834 2.65771 16.08 5.38208 16.08 8.57958C16.08 8.9249 15.8 9.20458 15.455 9.20458Z" fill="#6A7A99"/>
<path d="M16.6268 13.4675C16.4728 13.4675 16.3181 13.4106 16.1971 13.2966C15.3284 12.4741 14.83 11.3159 14.83 10.1194C14.83 9.77438 15.11 9.49438 15.455 9.49438C15.8 9.49438 16.08 9.77438 16.08 10.1194C16.08 10.9741 16.4359 11.8016 17.0565 12.3888C17.3071 12.6259 17.3181 13.0216 17.0809 13.2725C16.9581 13.4019 16.7925 13.4675 16.6268 13.4675Z" fill="#6A7A99"/>
<path d="M3.37297 13.4675C3.20703 13.4675 3.04172 13.4022 2.91891 13.2722C2.68172 13.0216 2.69266 12.6259 2.94328 12.3888C3.56391 11.8016 3.91985 10.9744 3.91985 10.1194C3.91985 9.77438 4.19985 9.49438 4.54485 9.49438C4.88985 9.49438 5.16985 9.77438 5.16985 10.1194C5.16985 11.3166 4.67141 12.4747 3.80266 13.2966C3.68141 13.4106 3.52703 13.4675 3.37297 13.4675Z" fill="#6A7A99"/>
<path d="M10 18.125C8.30625 18.125 6.875 16.6937 6.875 15C6.875 14.655 7.155 14.375 7.5 14.375C7.845 14.375 8.125 14.655 8.125 15C8.125 16.0163 8.98375 16.875 10 16.875C11.0163 16.875 11.875 16.0163 11.875 15C11.875 14.655 12.155 14.375 12.5 14.375C12.845 14.375 13.125 14.655 13.125 15C13.125 16.6937 11.6937 18.125 10 18.125Z" fill="#6A7A99"/>
<path d="M4.23328 15.625C3.47171 15.625 2.79421 15.1594 2.50703 14.4388C2.21953 13.7172 2.39109 12.9125 2.94421 12.3888C3.19484 12.1513 3.59015 12.1622 3.82796 12.4128C4.06515 12.6635 4.05453 13.0591 3.8039 13.2966C3.53015 13.556 3.63078 13.8825 3.66828 13.9763C3.70546 14.0694 3.8564 14.375 4.23328 14.375C4.57828 14.375 4.85828 14.655 4.85828 15C4.85828 15.345 4.57859 15.625 4.23328 15.625Z" fill="#6A7A99"/>
<path d="M15.7661 15.6249C15.4211 15.6249 15.1411 15.3449 15.1411 14.9999C15.1411 14.6549 15.4211 14.3749 15.7661 14.3749C16.1433 14.3749 16.2945 14.068 16.332 13.974C16.3692 13.8805 16.4695 13.5552 16.1958 13.2961C15.9452 13.0586 15.9342 12.6633 16.1714 12.4124C16.4089 12.1618 16.8042 12.1508 17.0552 12.388C17.6083 12.9118 17.7802 13.7158 17.4933 14.4361C17.2058 15.1583 16.5277 15.6249 15.7661 15.6249Z" fill="#6A7A99"/>
<path d="M4.54541 10.744C4.20041 10.744 3.92041 10.464 3.92041 10.119V8.57959C3.92041 8.23459 4.20041 7.95459 4.54541 7.95459C4.89042 7.95459 5.17042 8.23459 5.17042 8.57959V10.119C5.17042 10.464 4.89073 10.744 4.54541 10.744Z" fill="#6A7A99"/>
<path d="M15.4536 10.744C15.1086 10.744 14.8286 10.464 14.8286 10.119V8.57959C14.8286 8.23459 15.1086 7.95459 15.4536 7.95459C15.7986 7.95459 16.0786 8.23459 16.0786 8.57959V10.119C16.0786 10.464 15.7986 10.744 15.4536 10.744Z" fill="#6A7A99"/>
<path d="M15.7673 15.625H4.23291C3.88791 15.625 3.60791 15.345 3.60791 15C3.60791 14.655 3.88791 14.375 4.23291 14.375H15.767C16.112 14.375 16.392 14.655 16.392 15C16.392 15.345 16.1123 15.625 15.7673 15.625Z" fill="#6A7A99"/>
</svg>
