<svg width="20" height="20" viewBox="0 0 20 20" fill="none" xmlns="http://www.w3.org/2000/svg">
<g clip-path="url(#clip0_0_5181)">
<path d="M2.77528 16.5626C2.67713 16.5625 2.58024 16.5405 2.49161 16.4984C2.40298 16.4562 2.32482 16.3949 2.26278 16.3188C0.717752 14.398 -0.0633355 11.9741 0.0694625 9.51257C0.20226 7.05103 1.23959 4.72528 2.9823 2.98178C4.72502 1.23829 7.05031 0.199933 9.5118 0.0660409C11.9733 -0.0678513 14.3975 0.712159 16.319 2.25633C16.3956 2.30859 16.4605 2.3762 16.5096 2.45487C16.5587 2.53355 16.5908 2.62157 16.6041 2.71334C16.6173 2.80511 16.6113 2.89863 16.5864 2.98797C16.5616 3.0773 16.5184 3.16048 16.4597 3.23225C16.401 3.30401 16.328 3.36278 16.2454 3.40482C16.1627 3.44686 16.0723 3.47126 15.9797 3.47646C15.8871 3.48167 15.7945 3.46756 15.7076 3.43505C15.6208 3.40253 15.5417 3.35231 15.4753 3.28758C13.8148 1.92055 11.7048 1.22066 9.55653 1.32426C7.40821 1.42786 5.3754 2.32753 3.85416 3.848C2.33291 5.36846 1.43219 7.40081 1.32749 9.54908C1.22279 11.6973 1.9216 13.8076 3.28778 15.4688C3.36627 15.5665 3.41572 15.6843 3.4305 15.8088C3.44527 15.9333 3.42478 16.0594 3.37135 16.1727C3.31792 16.2861 3.23371 16.3822 3.12832 16.45C3.02293 16.5178 2.9006 16.5547 2.77528 16.5563V16.5626Z" fill="#6A7A99"/>
<path d="M9.99958 19.9999C7.87103 20.0044 5.79771 19.3228 4.08708 18.0562C4.00792 18.008 3.93964 17.9439 3.88655 17.868C3.83346 17.7921 3.79672 17.7059 3.77868 17.6151C3.76063 17.5242 3.76166 17.4306 3.78171 17.3401C3.80176 17.2496 3.84038 17.1643 3.89514 17.0896C3.94989 17.0149 4.01957 16.9523 4.09977 16.9059C4.17997 16.8595 4.26894 16.8303 4.36102 16.8201C4.45311 16.8099 4.54631 16.819 4.63472 16.8467C4.72312 16.8744 4.8048 16.9202 4.87458 16.9812C6.35682 18.0805 8.15417 18.6723 9.99958 18.6687C12.2982 18.667 14.5021 17.7532 16.1275 16.1278C17.7528 14.5025 18.6667 12.2985 18.6683 9.99991C18.6738 8.1552 18.0842 6.35793 16.9871 4.87491C16.9305 4.80467 16.8886 4.72371 16.8641 4.63689C16.8396 4.55007 16.8329 4.45918 16.8444 4.3697C16.8559 4.28022 16.8854 4.194 16.9312 4.11622C16.9769 4.03845 17.0379 3.97073 17.1104 3.91714C17.183 3.86355 17.2657 3.8252 17.3535 3.8044C17.4413 3.78359 17.5323 3.78077 17.6213 3.79609C17.7102 3.81142 17.795 3.84457 17.8708 3.89356C17.9466 3.94255 18.0116 4.00636 18.0621 4.08116C19.3278 5.79427 20.0073 7.86993 19.9996 9.99991C19.9996 12.6521 18.946 15.1956 17.0706 17.071C15.1953 18.9463 12.6517 19.9999 9.99958 19.9999Z" fill="#6A7A99"/>
<path d="M8.74946 13.2625C8.3969 13.2609 8.05925 13.1201 7.80994 12.8708C7.56064 12.6215 7.41986 12.2839 7.41821 11.9313V8.07504C7.4184 7.84114 7.48022 7.61142 7.59743 7.40901C7.71464 7.2066 7.88311 7.03865 8.08587 6.92205C8.28864 6.80546 8.51855 6.74435 8.75244 6.74488C8.98634 6.7454 9.21597 6.80754 9.41821 6.92504L12.7495 8.84379C12.9503 8.96269 13.1166 9.13184 13.2322 9.33458C13.3478 9.53732 13.4086 9.76667 13.4086 10C13.4086 10.2334 13.3478 10.4628 13.2322 10.6655C13.1166 10.8682 12.9503 11.0374 12.7495 11.1563L9.41821 13.075C9.21581 13.1956 8.98504 13.2603 8.74946 13.2625ZM8.74946 8.08129V11.9313L12.1057 10L8.74946 8.08129Z" fill="#6A7A99"/>
</g>
<defs>
<clipPath id="clip0_0_5181">
<rect width="20" height="20" fill="white"/>
</clipPath>
</defs>
</svg>
